<svg xmlns="http://www.w3.org/2000/svg" width="317.209" height="200.777" viewBox="0 0 317.209 200.777">
  <g id="Grupo_32" data-name="Grupo 32" transform="translate(-805 -277.617)">
    <g id="Layer_2" data-name="Layer 2" transform="translate(805 284.617)">
      <g id="Layer_2-2" data-name="Layer 2">
        <path id="Caminho_1" data-name="Caminho 1" d="M306.215,165.867a1.994,1.994,0,0,0,1.994-1.994V15.239A15.259,15.259,0,0,0,292.97,0H15.239A15.259,15.259,0,0,0,0,15.239v163.3a15.259,15.259,0,0,0,15.239,15.239H292.97a15.259,15.259,0,0,0,15.239-15.239,1.994,1.994,0,0,0-3.987,0A11.264,11.264,0,0,1,292.97,189.79H239.051l-5.231-34.106v-.08c-1.595-8.054-9.637-14.856-17.591-14.856H110.465a1.994,1.994,0,0,0,0,3.987H216.213c6.057,0,12.436,5.415,13.672,11.6l5.131,33.456H73.312l6.83-33.4v-.076c1.4-8.545,6.954-11.563,11.276-11.563a1.994,1.994,0,1,0,0-3.987c-7.739,0-13.7,5.837-15.2,14.876L69.241,189.79h-54A11.264,11.264,0,0,1,3.987,178.538V15.239A11.264,11.264,0,0,1,15.239,3.987H292.97a11.264,11.264,0,0,1,11.252,11.252V163.873A1.994,1.994,0,0,0,306.215,165.867Z" transform="translate(0 0)" fill="#fc9c54"/>
        <path id="Caminho_2" data-name="Caminho 2" d="M320.818,140.782V53.239A15.259,15.259,0,0,0,305.579,38H55.439A15.259,15.259,0,0,0,40.2,53.239v87.543a15.259,15.259,0,0,0,15.239,15.239,1.994,1.994,0,0,0,0-3.987,11.264,11.264,0,0,1-11.252-11.252V53.239A11.264,11.264,0,0,1,55.439,41.987h250.14a11.264,11.264,0,0,1,11.252,11.252v87.543a11.264,11.264,0,0,1-11.252,11.252H65.873a1.994,1.994,0,0,0,0,3.987H305.579a15.259,15.259,0,0,0,15.239-15.239Z" transform="translate(-24.172 -22.849)" fill="#fc9c54"/>
        <path id="Caminho_3" data-name="Caminho 3" d="M253.117,354.994A1.994,1.994,0,0,0,251.124,353h0a1.994,1.994,0,1,0,2.014,1.994Z" transform="translate(-149.809 -212.253)" fill="#fc9c54"/>
        <path id="Caminho_4" data-name="Caminho 4" d="M224.775,418a7.775,7.775,0,1,0,7.775,7.775A7.775,7.775,0,0,0,224.775,418Zm0,11.563a3.788,3.788,0,1,1,3.788-3.788A3.788,3.788,0,0,1,224.775,429.563Z" transform="translate(-130.478 -251.336)" fill="#fc9c54"/>
        <path id="Caminho_5" data-name="Caminho 5" d="M537.55,425.775a7.775,7.775,0,1,0-7.775,7.775A7.775,7.775,0,0,0,537.55,425.775Zm-11.563,0a3.788,3.788,0,1,1,3.788,3.788A3.788,3.788,0,0,1,525.987,425.775Z" transform="translate(-313.869 -251.336)" fill="#fc9c54"/>
        <path id="Caminho_6" data-name="Caminho 6" d="M347.462,161.239a1.994,1.994,0,1,0,3.987,0A15.259,15.259,0,0,0,336.21,146H195.239A15.259,15.259,0,0,0,180,161.239V181a15.259,15.259,0,0,0,15.239,15.239H336.21A15.259,15.259,0,0,0,351.449,181v-9.88a1.994,1.994,0,1,0-3.987,0V181a11.264,11.264,0,0,1-11.252,11.252H195.239A11.264,11.264,0,0,1,183.987,181v-19.76a11.264,11.264,0,0,1,11.252-11.252H336.21A11.264,11.264,0,0,1,347.462,161.239Z" transform="translate(-108.231 -87.787)" fill="#fc9c54"/>
        <path id="Caminho_7" data-name="Caminho 7" d="M324.239,168A15.259,15.259,0,0,0,309,183.239v2.217a15.259,15.259,0,0,0,15.239,15.239h35.709a15.259,15.259,0,0,0,15.239-15.239v-2.217A15.259,15.259,0,0,0,359.948,168ZM371.2,183.239v2.217a11.264,11.264,0,0,1-11.252,11.252H324.239a11.264,11.264,0,0,1-11.252-11.252v-2.217a11.264,11.264,0,0,1,11.252-11.252h35.709A11.264,11.264,0,0,1,371.2,183.239Z" transform="translate(-185.796 -101.015)" fill="#fc9c54"/>
        <path id="Caminho_8" data-name="Caminho 8" d="M233.12,179.363a1.994,1.994,0,0,0,1.994-1.994v-6.523A1.981,1.981,0,0,0,233.319,168a16.347,16.347,0,1,0,8.5,2.392,1.994,1.994,0,1,0-2.077,3.405,12.281,12.281,0,0,1,5.777,8.557H240.1a1.994,1.994,0,1,0,0,3.987h5.419a12.388,12.388,0,0,1-10.4,10.235v-5.251a1.994,1.994,0,1,0-3.987,0v5.183a12.38,12.38,0,0,1-10-10.167h5.02a1.994,1.994,0,1,0,0-3.987h-5.02a12.38,12.38,0,0,1,10-10.167v5.183A1.994,1.994,0,0,0,233.12,179.363Z" transform="translate(-130.45 -101.015)" fill="#fc9c54"/>
        <path id="Caminho_9" data-name="Caminho 9" d="M499.547,189.331a1.994,1.994,0,0,0-1.994,1.994v6.523a1.981,1.981,0,0,0,1.794,2.847A16.347,16.347,0,1,0,483,184.347a16.172,16.172,0,0,0,3.537,10.151,1.994,1.994,0,0,0,3.122-2.476,12.249,12.249,0,0,1-2.512-5.682h5.423a1.994,1.994,0,1,0,0-3.987H487.15a12.388,12.388,0,0,1,10.4-10.235v5.251a1.994,1.994,0,0,0,3.987,0v-5.183a12.38,12.38,0,0,1,10,10.167h-5.02a1.994,1.994,0,0,0,0,3.987h5.02a12.38,12.38,0,0,1-10,10.167v-5.183A1.994,1.994,0,0,0,499.547,189.331Z" transform="translate(-290.419 -101.015)" fill="#fc9c54"/>
        <ellipse id="Elipse_1" data-name="Elipse 1" cx="2.636" cy="3.295" rx="2.636" ry="3.295" transform="translate(10.316 9.242)" fill="#fc9c54"/>
        <ellipse id="Elipse_2" data-name="Elipse 2" cx="2.636" cy="3.295" rx="2.636" ry="3.295" transform="translate(295.028 9.242)" fill="#fc9c54"/>
        <circle id="Elipse_3" data-name="Elipse 3" cx="2.636" cy="2.636" r="2.636" transform="translate(10.316 177.96)" fill="#fc9c54"/>
        <circle id="Elipse_4" data-name="Elipse 4" cx="2.636" cy="2.636" r="2.636" transform="translate(295.028 177.96)" fill="#fc9c54"/>
        <path id="Caminho_10" data-name="Caminho 10" d="M95.923,81.464v-11A6.467,6.467,0,0,0,89.464,64h-11A6.467,6.467,0,0,0,72,70.459v11a6.467,6.467,0,0,0,6.459,6.459h11A6.467,6.467,0,0,0,95.923,81.464Zm-6.459,2.472h-5.9V81.217h8.373v.247A2.476,2.476,0,0,1,89.464,83.936Zm2.472-6.706H83.563V75.611a1.1,1.1,0,0,1,1.1-1.1h7.269ZM75.987,81.464v-11a2.476,2.476,0,0,1,2.472-2.472h11a2.476,2.476,0,0,1,2.472,2.472v.064H84.667a5.1,5.1,0,0,0-5.092,5.088v8.325H78.459A2.476,2.476,0,0,1,75.987,81.464Z" transform="translate(-43.292 -38.482)" fill="#fc9c54"/>
      </g>
    </g>
    <g id="Layer_2-3" data-name="Layer 2" transform="translate(814 277.617)">
      <g id="Layer_2-4" data-name="Layer 2">
        <path id="Caminho_1-2" data-name="Caminho 1" d="M306.215,165.867a1.994,1.994,0,0,0,1.994-1.994V15.239A15.259,15.259,0,0,0,292.97,0H15.239A15.259,15.259,0,0,0,0,15.239v163.3a15.259,15.259,0,0,0,15.239,15.239H292.97a15.259,15.259,0,0,0,15.239-15.239,1.994,1.994,0,0,0-3.987,0A11.264,11.264,0,0,1,292.97,189.79H239.051l-5.231-34.106v-.08c-1.595-8.054-9.637-14.856-17.591-14.856H110.465a1.994,1.994,0,0,0,0,3.987H216.213c6.057,0,12.436,5.415,13.672,11.6l5.131,33.456H73.312l6.83-33.4v-.076c1.4-8.545,6.954-11.563,11.276-11.563a1.994,1.994,0,1,0,0-3.987c-7.739,0-13.7,5.837-15.2,14.876L69.241,189.79h-54A11.264,11.264,0,0,1,3.987,178.538V15.239A11.264,11.264,0,0,1,15.239,3.987H292.97a11.264,11.264,0,0,1,11.252,11.252V163.873A1.994,1.994,0,0,0,306.215,165.867Z" transform="translate(0 0)" fill="#2c2c2c"/>
        <path id="Caminho_2-2" data-name="Caminho 2" d="M320.818,140.782V53.239A15.259,15.259,0,0,0,305.579,38H55.439A15.259,15.259,0,0,0,40.2,53.239v87.543a15.259,15.259,0,0,0,15.239,15.239,1.994,1.994,0,0,0,0-3.987,11.264,11.264,0,0,1-11.252-11.252V53.239A11.264,11.264,0,0,1,55.439,41.987h250.14a11.264,11.264,0,0,1,11.252,11.252v87.543a11.264,11.264,0,0,1-11.252,11.252H65.873a1.994,1.994,0,0,0,0,3.987H305.579a15.259,15.259,0,0,0,15.239-15.239Z" transform="translate(-24.172 -22.849)" fill="#2c2c2c"/>
        <path id="Caminho_3-2" data-name="Caminho 3" d="M253.117,354.994A1.994,1.994,0,0,0,251.124,353h0a1.994,1.994,0,1,0,2.014,1.994Z" transform="translate(-149.809 -212.253)" fill="#2c2c2c"/>
        <path id="Caminho_4-2" data-name="Caminho 4" d="M224.775,418a7.775,7.775,0,1,0,7.775,7.775A7.775,7.775,0,0,0,224.775,418Zm0,11.563a3.788,3.788,0,1,1,3.788-3.788A3.788,3.788,0,0,1,224.775,429.563Z" transform="translate(-130.478 -251.336)" fill="#2c2c2c"/>
        <path id="Caminho_5-2" data-name="Caminho 5" d="M537.55,425.775a7.775,7.775,0,1,0-7.775,7.775A7.775,7.775,0,0,0,537.55,425.775Zm-11.563,0a3.788,3.788,0,1,1,3.788,3.788A3.788,3.788,0,0,1,525.987,425.775Z" transform="translate(-313.869 -251.336)" fill="#2c2c2c"/>
        <path id="Caminho_6-2" data-name="Caminho 6" d="M347.462,161.239a1.994,1.994,0,1,0,3.987,0A15.259,15.259,0,0,0,336.21,146H195.239A15.259,15.259,0,0,0,180,161.239V181a15.259,15.259,0,0,0,15.239,15.239H336.21A15.259,15.259,0,0,0,351.449,181v-9.88a1.994,1.994,0,1,0-3.987,0V181a11.264,11.264,0,0,1-11.252,11.252H195.239A11.264,11.264,0,0,1,183.987,181v-19.76a11.264,11.264,0,0,1,11.252-11.252H336.21A11.264,11.264,0,0,1,347.462,161.239Z" transform="translate(-108.231 -87.787)" fill="#2c2c2c"/>
        <path id="Caminho_7-2" data-name="Caminho 7" d="M324.239,168A15.259,15.259,0,0,0,309,183.239v2.217a15.259,15.259,0,0,0,15.239,15.239h35.709a15.259,15.259,0,0,0,15.239-15.239v-2.217A15.259,15.259,0,0,0,359.948,168ZM371.2,183.239v2.217a11.264,11.264,0,0,1-11.252,11.252H324.239a11.264,11.264,0,0,1-11.252-11.252v-2.217a11.264,11.264,0,0,1,11.252-11.252h35.709A11.264,11.264,0,0,1,371.2,183.239Z" transform="translate(-185.796 -101.015)" fill="#2c2c2c"/>
        <path id="Caminho_8-2" data-name="Caminho 8" d="M233.12,179.363a1.994,1.994,0,0,0,1.994-1.994v-6.523A1.981,1.981,0,0,0,233.319,168a16.347,16.347,0,1,0,8.5,2.392,1.994,1.994,0,1,0-2.077,3.405,12.281,12.281,0,0,1,5.777,8.557H240.1a1.994,1.994,0,1,0,0,3.987h5.419a12.388,12.388,0,0,1-10.4,10.235v-5.251a1.994,1.994,0,1,0-3.987,0v5.183a12.38,12.38,0,0,1-10-10.167h5.02a1.994,1.994,0,1,0,0-3.987h-5.02a12.38,12.38,0,0,1,10-10.167v5.183A1.994,1.994,0,0,0,233.12,179.363Z" transform="translate(-130.45 -101.015)" fill="#2c2c2c"/>
        <path id="Caminho_9-2" data-name="Caminho 9" d="M499.547,189.331a1.994,1.994,0,0,0-1.994,1.994v6.523a1.981,1.981,0,0,0,1.794,2.847A16.347,16.347,0,1,0,483,184.347a16.172,16.172,0,0,0,3.537,10.151,1.994,1.994,0,0,0,3.122-2.476,12.249,12.249,0,0,1-2.512-5.682h5.423a1.994,1.994,0,1,0,0-3.987H487.15a12.388,12.388,0,0,1,10.4-10.235v5.251a1.994,1.994,0,0,0,3.987,0v-5.183a12.38,12.38,0,0,1,10,10.167h-5.02a1.994,1.994,0,0,0,0,3.987h5.02a12.38,12.38,0,0,1-10,10.167v-5.183A1.994,1.994,0,0,0,499.547,189.331Z" transform="translate(-290.419 -101.015)" fill="#2c2c2c"/>
        <ellipse id="Elipse_1-2" data-name="Elipse 1" cx="2.636" cy="3.295" rx="2.636" ry="3.295" transform="translate(10.316 9.242)" fill="#2c2c2c"/>
        <ellipse id="Elipse_2-2" data-name="Elipse 2" cx="2.636" cy="3.295" rx="2.636" ry="3.295" transform="translate(295.028 9.242)" fill="#2c2c2c"/>
        <circle id="Elipse_3-2" data-name="Elipse 3" cx="2.636" cy="2.636" r="2.636" transform="translate(10.316 177.96)" fill="#2c2c2c"/>
        <circle id="Elipse_4-2" data-name="Elipse 4" cx="2.636" cy="2.636" r="2.636" transform="translate(295.028 177.96)" fill="#2c2c2c"/>
        <path id="Caminho_10-2" data-name="Caminho 10" d="M95.923,81.464v-11A6.467,6.467,0,0,0,89.464,64h-11A6.467,6.467,0,0,0,72,70.459v11a6.467,6.467,0,0,0,6.459,6.459h11A6.467,6.467,0,0,0,95.923,81.464Zm-6.459,2.472h-5.9V81.217h8.373v.247A2.476,2.476,0,0,1,89.464,83.936Zm2.472-6.706H83.563V75.611a1.1,1.1,0,0,1,1.1-1.1h7.269ZM75.987,81.464v-11a2.476,2.476,0,0,1,2.472-2.472h11a2.476,2.476,0,0,1,2.472,2.472v.064H84.667a5.1,5.1,0,0,0-5.092,5.088v8.325H78.459A2.476,2.476,0,0,1,75.987,81.464Z" transform="translate(-43.292 -38.482)" fill="#2c2c2c"/>
      </g>
    </g>
  </g>
</svg>
