<svg xmlns="http://www.w3.org/2000/svg" width="53" height="53" viewBox="0 0 53 53">
  <path id="Caminho_11" data-name="Caminho 11" d="M213,136.758H188.629a14.329,14.329,0,0,0-14.313,14.313v24.374a14.329,14.329,0,0,0,14.313,14.313H213a14.329,14.329,0,0,0,14.313-14.313V151.071A14.329,14.329,0,0,0,213,136.758Zm5.479,29.307h-18.55v-3.58a2.449,2.449,0,0,1,2.446-2.446h16.1Zm-35.333,9.38V151.071a5.486,5.486,0,0,1,5.479-5.479H213a5.486,5.486,0,0,1,5.479,5.479v.135h-16.1A11.292,11.292,0,0,0,191.1,162.485v18.44h-2.471A5.486,5.486,0,0,1,183.149,175.445ZM213,180.925H199.933V174.9h18.55v.547A5.485,5.485,0,0,1,213,180.925Z" transform="translate(-174.316 -136.758)" fill="#88ddda"/>
</svg>
