<svg id="Layer_2" data-name="Layer 2" xmlns="http://www.w3.org/2000/svg" width="233.827" height="172.992" viewBox="0 0 233.827 172.992">
  <g id="Layer_2-2" data-name="Layer 2" transform="translate(0 0)">
    <path id="Caminho_12" data-name="Caminho 12" d="M224,82.172a1.315,1.315,0,0,0,1.315-1.315v-32.8A10.066,10.066,0,0,0,215.262,38H50.253A10.066,10.066,0,0,0,40.2,48.053V105.8a10.066,10.066,0,0,0,10.053,10.053H174.683a1.315,1.315,0,0,0,0-2.63H50.253A7.43,7.43,0,0,1,42.83,105.8V48.053a7.43,7.43,0,0,1,7.422-7.422h165.01a7.43,7.43,0,0,1,7.423,7.422v32.8A1.315,1.315,0,0,0,224,82.172Z" transform="translate(-29.627 -28.005)" fill="#2c2c2c"/>
    <path id="Caminho_13" data-name="Caminho 13" d="M148.871,125.2H48.362l4.506-22.036v-.05c.928-5.637,4.587-7.628,7.438-7.628h82.326a1.315,1.315,0,1,0,0-2.63H60.316c-5.1,0-9.037,3.851-10.029,9.813L45.676,125.2H10.053a7.43,7.43,0,0,1-7.422-7.422V10.053A7.43,7.43,0,0,1,10.053,2.63H193.263a7.43,7.43,0,0,1,7.422,7.422v45.24a1.315,1.315,0,1,0,2.63,0V10.053A10.066,10.066,0,0,0,193.263,0H10.053A10.066,10.066,0,0,0,0,10.053V117.776a10.066,10.066,0,0,0,10.053,10.053H148.871a1.315,1.315,0,1,0,0-2.63Z" transform="translate(0 0)" fill="#2c2c2c"/>
    <path id="Caminho_14" data-name="Caminho 14" d="M227.784,168a10.784,10.784,0,1,0,10.784,10.784A10.784,10.784,0,0,0,227.784,168Zm1.184,18.851v-3.464a1.315,1.315,0,0,0-2.63,0v3.419a8.167,8.167,0,0,1-6.6-6.707h3.311a1.315,1.315,0,1,0,0-2.63h-3.311a8.167,8.167,0,0,1,6.6-6.707v3.419a1.315,1.315,0,0,0,2.63,0v-3.464a8.172,8.172,0,0,1,6.862,6.752h-3.574a1.315,1.315,0,0,0,0,2.63h3.574A8.172,8.172,0,0,1,228.967,186.851Z" transform="translate(-159.924 -123.812)" fill="#2c2c2c"/>
    <path id="Caminho_15" data-name="Caminho 15" d="M217,423.129A5.129,5.129,0,1,0,222.129,418,5.129,5.129,0,0,0,217,423.129Zm7.628,0a2.5,2.5,0,1,1-2.5-2.5,2.5,2.5,0,0,1,2.5,2.5Z" transform="translate(-159.924 -308.057)" fill="#2c2c2c"/>
    <path id="Caminho_16" data-name="Caminho 16" d="M535.359,422.631a1.315,1.315,0,0,0-1.86,0,5.129,5.129,0,0,0,3.627,8.756,1.315,1.315,0,1,0,0-2.63,2.5,2.5,0,0,1-1.767-4.266A1.315,1.315,0,0,0,535.359,422.631Z" transform="translate(-392.07 -311.186)" fill="#2c2c2c"/>
    <path id="Caminho_17" data-name="Caminho 17" d="M493.784,168a10.784,10.784,0,1,0,10.784,10.784A10.784,10.784,0,0,0,493.784,168Zm1.447,18.806v-3.419a1.315,1.315,0,1,0-2.63,0v3.464a8.172,8.172,0,0,1-6.862-6.752h3.574a1.315,1.315,0,0,0,0-2.63h-3.574a8.172,8.172,0,0,1,6.862-6.752v3.464a1.315,1.315,0,1,0,2.63,0v-3.419a8.167,8.167,0,0,1,6.6,6.707h-3.311a1.315,1.315,0,1,0,0,2.63h3.311a8.167,8.167,0,0,1-6.6,6.707Z" transform="translate(-355.96 -123.812)" fill="#2c2c2c"/>
    <path id="Caminho_18" data-name="Caminho 18" d="M190.053,146A10.066,10.066,0,0,0,180,156.053v13.035a10.066,10.066,0,0,0,10.053,10.053h92.994A10.066,10.066,0,0,0,293.1,169.088V156.053A10.066,10.066,0,0,0,283.047,146Zm100.417,10.053v13.035a7.43,7.43,0,0,1-7.422,7.422H190.053a7.43,7.43,0,0,1-7.422-7.422V156.053a7.43,7.43,0,0,1,7.422-7.422h92.994A7.43,7.43,0,0,1,290.469,156.053Z" transform="translate(-132.656 -107.599)" fill="#2c2c2c"/>
    <path id="Caminho_19" data-name="Caminho 19" d="M342.609,168H319.053A10.066,10.066,0,0,0,309,178.053v1.462a10.066,10.066,0,0,0,10.053,10.053h23.556a10.066,10.066,0,0,0,10.053-10.053v-1.462A10.066,10.066,0,0,0,342.609,168Zm7.422,11.515a7.43,7.43,0,0,1-7.422,7.422H319.053a7.43,7.43,0,0,1-7.422-7.422v-1.462a7.43,7.43,0,0,1,7.422-7.422h23.556a7.43,7.43,0,0,1,7.422,7.422Z" transform="translate(-227.726 -123.812)" fill="#2c2c2c"/>
    <circle id="Elipse_5" data-name="Elipse 5" cx="2" cy="2" r="2" transform="translate(7 6)" fill="#2c2c2c"/>
    <circle id="Elipse_6" data-name="Elipse 6" cx="2" cy="2" r="2" transform="translate(194 6)" fill="#2c2c2c"/>
    <circle id="Elipse_7" data-name="Elipse 7" cx="2" cy="2" r="2" transform="translate(7 117)" fill="#2c2c2c"/>
    <path id="Caminho_20" data-name="Caminho 20" d="M641.353,269.094a1.315,1.315,0,0,0-1.47,1.136,41.335,41.335,0,1,1,.337-5.305,1.315,1.315,0,1,0,2.63,0,43.925,43.925,0,1,0-64.6,38.743v27.957a3.485,3.485,0,0,0,2.183,3.269,3.6,3.6,0,0,0,1.378.279,3.493,3.493,0,0,0,2.48-1.052l8.1-8.106a1.315,1.315,0,1,0-1.86-1.86l-8.1,8.1a.907.907,0,0,1-1.552-.642V304.967a43.924,43.924,0,0,0,61.616-34.4,1.315,1.315,0,0,0-1.139-1.47Z" transform="translate(-409.023 -162.872)" fill="#2c2c2c"/>
    <path id="Caminho_21" data-name="Caminho 21" d="M640.3,330.936a31.323,31.323,0,1,0-5.81.526,1.315,1.315,0,1,0,0-2.63,28.643,28.643,0,1,1,5.326-.495,1.315,1.315,0,0,0,.484,2.586Z" transform="translate(-444.59 -198.11)" fill="#2c2c2c"/>
    <path id="Caminho_22" data-name="Caminho 22" d="M723.153,560.33a1.315,1.315,0,0,0-1.315,1.315V582.39a.907.907,0,0,1-1.552.642L707.858,570.6a3.538,3.538,0,0,0-5,0,1.315,1.315,0,1,0,1.86,1.86.91.91,0,0,1,1.283,0l12.428,12.428a3.493,3.493,0,0,0,2.48,1.052,3.583,3.583,0,0,0,1.376-.279,3.482,3.482,0,0,0,2.186-3.269v-20.75a1.315,1.315,0,0,0-1.32-1.315Z" transform="translate(-517.709 -412.951)" fill="#2c2c2c"/>
    <path id="Caminho_23" data-name="Caminho 23" d="M679.805,381.163a1.315,1.315,0,1,0,0-2.63h-1.273l.505-1.878a1.316,1.316,0,1,0-2.541-.684l-.689,2.562h-1.315l.508-1.878a1.316,1.316,0,0,0-2.541-.684l-.689,2.562H668.7a1.315,1.315,0,1,0,0,2.63h2.367l-.379,1.41H668.7a1.315,1.315,0,1,0,0,2.63h1.273l-.51,1.894a1.315,1.315,0,0,0,.928,1.612,1.386,1.386,0,0,0,.342.045,1.315,1.315,0,0,0,1.27-.973l.689-2.564h1.315L673.5,387.1a1.315,1.315,0,0,0,.928,1.612,1.405,1.405,0,0,0,.342.045,1.315,1.315,0,0,0,1.27-.973l.689-2.564h3.072a1.315,1.315,0,1,0,0-2.63h-2.367l.379-1.41Zm-5.087,1.41H673.4l.381-1.41H675.1Z" transform="translate(-491.844 -276.364)" fill="#2c2c2c"/>
    <path id="Caminho_24" data-name="Caminho 24" d="M732.569,377.675l3.269-16.355h-8.317l-.842,4.158h2.8l-2.43,12.2Z" transform="translate(-535.547 -266.285)" fill="#2c2c2c"/>
  </g>
</svg>
