<svg id="Layer_2" data-name="Layer 2" xmlns="http://www.w3.org/2000/svg" width="233.827" height="147.011" viewBox="0 0 233.827 147.011">
  <g id="Layer_2-2" data-name="Layer 2" transform="translate(0 0)">
    <path id="Caminho_1" data-name="Caminho 1" d="M232.314,125.837a1.512,1.512,0,0,0,1.512-1.512V11.561A11.576,11.576,0,0,0,222.265,0H11.561A11.576,11.576,0,0,0,0,11.561V135.45a11.576,11.576,0,0,0,11.561,11.561h210.7a11.576,11.576,0,0,0,11.561-11.561,1.512,1.512,0,0,0-3.025,0,8.545,8.545,0,0,1-8.536,8.536H181.359l-3.969-25.875v-.061c-1.21-6.11-7.311-11.271-13.346-11.271H83.806a1.512,1.512,0,0,0,0,3.025h80.227c4.595,0,9.435,4.108,10.372,8.8l3.893,25.382H55.619L60.8,118.644v-.057c1.065-6.482,5.275-8.772,8.554-8.772a1.512,1.512,0,1,0,0-3.025c-5.871,0-10.4,4.428-11.534,11.286l-5.291,25.912H11.561a8.545,8.545,0,0,1-8.536-8.536V11.561a8.545,8.545,0,0,1,8.536-8.536h210.7a8.545,8.545,0,0,1,8.536,8.536V124.324A1.512,1.512,0,0,0,232.314,125.837Z" transform="translate(0 0)" fill="#2c2c2c"/>
    <path id="Caminho_2" data-name="Caminho 2" d="M253.094,115.977V49.561A11.576,11.576,0,0,0,241.533,38H51.761A11.576,11.576,0,0,0,40.2,49.561v66.415a11.576,11.576,0,0,0,11.561,11.561,1.512,1.512,0,1,0,0-3.025,8.545,8.545,0,0,1-8.536-8.536V49.561a8.545,8.545,0,0,1,8.536-8.536H241.533a8.545,8.545,0,0,1,8.536,8.536v66.415a8.545,8.545,0,0,1-8.536,8.536H59.677a1.512,1.512,0,1,0,0,3.025H241.533a11.576,11.576,0,0,0,11.561-11.561Z" transform="translate(-28.04 -26.505)" fill="#2c2c2c"/>
    <path id="Caminho_3" data-name="Caminho 3" d="M252.16,354.512A1.512,1.512,0,0,0,250.647,353h0a1.512,1.512,0,1,0,1.528,1.512Z" transform="translate(-173.784 -246.22)" fill="#2c2c2c"/>
    <path id="Caminho_4" data-name="Caminho 4" d="M222.9,418a5.9,5.9,0,1,0,5.9,5.9A5.9,5.9,0,0,0,222.9,418Zm0,8.772a2.874,2.874,0,1,1,2.874-2.874A2.874,2.874,0,0,1,222.9,426.772Z" transform="translate(-151.359 -291.558)" fill="#2c2c2c"/>
    <path id="Caminho_5" data-name="Caminho 5" d="M533.8,423.9a5.9,5.9,0,1,0-5.9,5.9A5.9,5.9,0,0,0,533.8,423.9Zm-8.772,0a2.874,2.874,0,1,1,2.874,2.874A2.874,2.874,0,0,1,525.025,423.9Z" transform="translate(-364.099 -291.558)" fill="#2c2c2c"/>
    <path id="Caminho_6" data-name="Caminho 6" d="M307.047,157.561a1.512,1.512,0,1,0,3.025,0A11.576,11.576,0,0,0,298.51,146H191.561A11.576,11.576,0,0,0,180,157.561v14.992a11.576,11.576,0,0,0,11.561,11.561H298.51a11.576,11.576,0,0,0,11.561-11.561v-7.5a1.512,1.512,0,1,0-3.025,0v7.5a8.545,8.545,0,0,1-8.536,8.536H191.561a8.545,8.545,0,0,1-8.536-8.536V157.561a8.545,8.545,0,0,1,8.536-8.536H298.51A8.545,8.545,0,0,1,307.047,157.561Z" transform="translate(-125.551 -101.836)" fill="#2c2c2c"/>
    <path id="Caminho_7" data-name="Caminho 7" d="M320.561,168A11.576,11.576,0,0,0,309,179.561v1.682A11.576,11.576,0,0,0,320.561,192.8h27.091a11.576,11.576,0,0,0,11.561-11.561v-1.682A11.576,11.576,0,0,0,347.652,168Zm35.628,11.561v1.682a8.545,8.545,0,0,1-8.536,8.536H320.561a8.545,8.545,0,0,1-8.536-8.536v-1.682a8.545,8.545,0,0,1,8.536-8.536h27.091A8.545,8.545,0,0,1,356.189,179.561Z" transform="translate(-215.53 -117.181)" fill="#2c2c2c"/>
    <path id="Caminho_8" data-name="Caminho 8" d="M229.218,176.621a1.512,1.512,0,0,0,1.512-1.512V170.16a1.5,1.5,0,0,0-1.361-2.16,12.4,12.4,0,1,0,6.446,1.815,1.513,1.513,0,1,0-1.576,2.583,9.317,9.317,0,0,1,4.383,6.492h-4.111a1.512,1.512,0,1,0,0,3.025h4.111a9.4,9.4,0,0,1-7.892,7.765V185.7a1.512,1.512,0,1,0-3.025,0v3.932a9.392,9.392,0,0,1-7.59-7.714h3.808a1.512,1.512,0,1,0,0-3.025h-3.808a9.392,9.392,0,0,1,7.59-7.714v3.932A1.512,1.512,0,0,0,229.218,176.621Z" transform="translate(-151.326 -117.181)" fill="#2c2c2c"/>
    <path id="Caminho_9" data-name="Caminho 9" d="M495.553,184.183a1.512,1.512,0,0,0-1.512,1.512v4.949a1.5,1.5,0,0,0,1.361,2.16A12.4,12.4,0,1,0,483,180.4a12.269,12.269,0,0,0,2.683,7.7,1.512,1.512,0,0,0,2.368-1.878,9.293,9.293,0,0,1-1.906-4.311h4.114a1.512,1.512,0,1,0,0-3.025h-4.111a9.4,9.4,0,0,1,7.892-7.765v3.984a1.512,1.512,0,0,0,3.025,0v-3.932a9.392,9.392,0,0,1,7.59,7.714h-3.808a1.512,1.512,0,0,0,0,3.025h3.808a9.392,9.392,0,0,1-7.59,7.714V185.7A1.512,1.512,0,0,0,495.553,184.183Z" transform="translate(-336.896 -117.181)" fill="#2c2c2c"/>
    <ellipse id="Elipse_1" data-name="Elipse 1" cx="2" cy="2.5" rx="2" ry="2.5" transform="translate(7.827 7.011)" fill="#2c2c2c"/>
    <ellipse id="Elipse_2" data-name="Elipse 2" cx="2" cy="2.5" rx="2" ry="2.5" transform="translate(223.827 7.011)" fill="#2c2c2c"/>
    <circle id="Elipse_3" data-name="Elipse 3" cx="2" cy="2" r="2" transform="translate(7.827 135.011)" fill="#2c2c2c"/>
    <circle id="Elipse_4" data-name="Elipse 4" cx="2" cy="2" r="2" transform="translate(223.827 135.011)" fill="#2c2c2c"/>
    <path id="Caminho_10" data-name="Caminho 10" d="M90.15,77.249V68.9a4.906,4.906,0,0,0-4.9-4.9H76.9A4.906,4.906,0,0,0,72,68.9v8.349a4.906,4.906,0,0,0,4.9,4.9h8.349A4.906,4.906,0,0,0,90.15,77.249Zm-4.9,1.875H80.772V77.062h6.352v.188A1.878,1.878,0,0,1,85.249,79.125Zm1.875-5.088H80.772V72.809a.838.838,0,0,1,.838-.835h5.514Zm-12.1,3.212V68.9A1.878,1.878,0,0,1,76.9,67.025h8.349A1.878,1.878,0,0,1,87.125,68.9v.048H81.61a3.866,3.866,0,0,0-3.863,3.86v6.316H76.9A1.878,1.878,0,0,1,75.025,77.249Z" transform="translate(-50.221 -44.64)" fill="#2c2c2c"/>
  </g>
</svg>
